<svg width="81" height="70" viewBox="0 0 81 70" fill="none" xmlns="http://www.w3.org/2000/svg">
<path d="M29.716 0C14.3787 7.19859 0 24.3262 0 46.4184C0 60.0709 8.38758 70 18.6923 70C29.4763 70 34.9882 61.5603 34.9882 53.8652C34.9882 44.9291 28.997 37.9787 20.1302 37.9787C17.4941 37.9787 14.858 38.7234 13.4201 39.9645C13.4201 29.0426 21.8077 16.1347 34.7485 9.43263L29.716 0ZM75.7278 0C60.3905 7.19859 45.7722 24.3262 45.7722 46.4184C45.7722 60.0709 54.3994 70 64.7041 70C75.4882 70 81 61.5603 81 53.8652C81 44.9291 75.0089 37.9787 65.9024 37.9787C63.2663 37.9787 60.8698 38.7234 59.4319 39.9645C59.4319 29.0426 67.8195 16.1347 80.7604 9.43263L75.7278 0Z" fill="#00BFFF" fill-opacity="0.4"/>
</svg>
