<svg width="167" height="63" viewBox="0 0 167 63" fill="none" xmlns="http://www.w3.org/2000/svg">
<path d="M17.5487 47.4008C15.6546 45.8263 13.9324 44.004 12.6303 41.8762C12.0063 40.8023 11.4216 39.6884 11.0384 38.4918C10.6453 37.3028 10.3824 36.0637 10.267 34.8096C10.0459 32.2938 10.4291 29.748 11.2275 27.3699C12.0456 24.9994 13.2101 22.744 14.8193 20.834L15.0134 20.9942C13.6769 23.0393 12.5616 25.2472 11.7828 27.5627C11.0015 29.8757 10.5765 32.3263 10.7165 34.772C10.7952 35.9936 11.0187 37.2027 11.3725 38.3767C11.7213 39.5532 12.2495 40.6696 12.8564 41.731C14.1314 43.8262 15.7971 45.6686 17.7035 47.1956L17.5487 47.4008Z" fill="white"/>
<path d="M6.62828 37.2474C7.76329 37.4477 8.9327 37.9033 9.99401 38.5266C9.16855 37.4627 8.38485 36.3362 7.00416 35.9132C5.94039 35.5878 4.79555 35.8055 3.7195 36.0884C3.11514 36.2461 2.4985 36.4238 1.8794 36.3462C1.26031 36.2661 0.636295 35.8531 0.515915 35.2298C2.55255 33.7504 5.46133 33.9782 7.60115 35.2949C9.17346 36.2611 10.6131 37.8532 11.4582 39.5679C11.7555 39.8182 11.5909 39.7056 11.8439 39.9835C11.8759 40.0861 12.0233 40.3064 11.8931 40.2713C11.8513 40.2713 11.8095 40.2738 11.7678 40.2738C11.7702 40.2788 11.7702 40.2813 11.7727 40.2863C11.7678 40.2838 11.7629 40.2788 11.7579 40.2763C10.2127 40.2413 8.72388 39.2024 7.11471 39.7957C6.28679 40.1011 5.66032 40.7945 5.10756 41.4904C4.79801 41.8834 4.486 42.2939 4.05607 42.5418C3.62615 42.7896 3.03653 42.8296 2.67047 42.4892C3.27975 40.5642 5.23531 39.3051 7.21053 39.1098C8.07775 39.0247 9.01869 39.1073 9.92031 39.3301C8.80249 38.6567 7.6945 37.9383 6.29171 38.051C5.18372 38.1411 4.19611 38.7669 3.29203 39.4252C2.78594 39.7957 2.27248 40.1887 1.66813 40.3439C1.06377 40.4991 0.334116 40.3439 0 39.8057C1.37332 37.673 4.16417 36.8093 6.62828 37.2474Z" fill="white"/>
<path d="M18.8556 34.1886C18.2021 35.0822 17.7746 36.1561 17.4503 37.23C17.1408 38.3164 16.9884 39.4429 16.9516 40.5668C16.9639 41.1301 16.9368 41.6908 17.0007 42.2515C17.0253 42.5319 17.0228 42.8122 17.0621 43.0901L17.1727 43.9237C17.2046 44.2015 17.2489 44.4794 17.3054 44.7548L17.4429 45.5883C17.5535 46.139 17.6714 46.6923 17.75 47.2605L17.5117 47.3381C17.298 46.8049 17.0867 46.2642 16.9295 45.7085C16.8066 45.1453 16.6445 44.5845 16.5904 44.0063C16.4209 42.8573 16.4185 41.6883 16.5069 40.5343C16.6322 39.3828 16.8509 38.2438 17.1997 37.1474C17.5412 36.046 18.008 34.9946 18.6615 34.0259L18.8556 34.1886Z" fill="white"/>
<path d="M20.1996 33.9883C20.659 33.6579 20.8482 33.0671 21.0054 32.5164C21.1455 32.0283 21.288 31.5376 21.428 31.0495C21.1258 30.9794 20.8113 31.0946 20.5288 31.2297C20.1947 31.3899 19.8778 31.5827 19.5805 31.803C19.3176 31.9957 19.0671 32.216 18.9 32.4989C18.7452 32.7567 18.6715 33.0521 18.6371 33.35C18.6175 33.5177 18.5217 34.1034 18.6445 34.2336C18.9147 34.5165 19.9367 34.176 20.1996 33.9883Z" fill="white"/>
<path d="M17.5953 35.6431C17.4577 35.0874 16.9811 34.6994 16.5315 34.3514C16.1335 34.0435 15.7355 33.7356 15.3351 33.4277C15.1631 33.6906 15.1557 34.031 15.1803 34.3464C15.2098 34.7194 15.2712 35.0924 15.367 35.4529C15.4505 35.7708 15.5635 36.0887 15.7625 36.349C15.9443 36.5868 16.1875 36.762 16.4504 36.9022C16.5978 36.9798 17.1015 37.2802 17.2636 37.2101C17.6247 37.0524 17.6739 35.9585 17.5953 35.6431Z" fill="white"/>
<path d="M18.6151 38.6743C19.1629 38.5467 19.556 38.0711 19.9073 37.623C20.2193 37.225 20.5313 36.8269 20.8433 36.4289C20.5878 36.2462 20.2562 36.2312 19.9441 36.2487C19.5756 36.2687 19.2096 36.3238 18.8534 36.4114C18.5389 36.489 18.2244 36.5967 17.964 36.7919C17.7257 36.9721 17.5488 37.215 17.4063 37.4778C17.3253 37.6255 17.0182 38.1311 17.0845 38.2989C17.2295 38.6693 18.303 38.7469 18.6151 38.6743Z" fill="white"/>
<path d="M29.9678 15.5921C31.0512 14.4081 32.0413 13.1364 33.1443 11.8272C33.8126 11.0337 33.39 9.79712 32.3803 9.61438C31.1323 9.38659 29.8376 9.43665 28.6141 9.76958C28.8401 8.57304 29.0661 7.35146 28.9138 6.14239C28.7615 4.93333 28.167 3.71675 27.1155 3.136C26.4424 2.76552 25.6537 2.68542 24.8897 2.6729C22.7425 2.64036 20.2514 3.35379 19.4603 5.38892C18.9395 3.34377 17.6767 1.5064 15.9938 0.269796C15.2568 -0.270903 14.2275 0.0344916 13.8811 0.888096C12.7608 3.65918 12.5716 6.7682 12.2965 9.72202C11.9894 13.0188 11.8567 16.3381 12.0188 19.6474C12.1834 22.9842 15.075 23.4423 17.7995 22.6287C20.8385 21.72 23.7989 20.4484 26.4522 18.6761C27.828 17.7574 28.9384 16.7136 29.9678 15.5921Z" fill="white"/>
<path d="M107.223 54.8569H108.198V58.2663H108.22C108.375 57.9835 108.618 57.7357 108.918 57.5654C109.205 57.3952 109.549 57.2826 109.915 57.2826C110.635 57.2826 111.787 57.7332 111.787 59.6206V62.8723H110.812V59.7332C110.812 58.8521 110.49 58.1061 109.571 58.1061C108.94 58.1061 108.441 58.5567 108.264 59.0999C108.208 59.2351 108.198 59.3828 108.198 59.573V62.8698H107.223V54.8569Z" fill="white"/>
<path d="M116.345 62.8724L116.266 62.1841H116.232C115.932 62.6121 115.357 62.9976 114.591 62.9976C113.505 62.9976 112.952 62.2191 112.952 61.4281C112.952 60.1064 114.104 59.3854 116.178 59.3954V59.2828C116.178 58.8322 116.055 58.0187 114.959 58.0187C114.461 58.0187 113.94 58.1764 113.564 58.4242L113.343 57.7683C113.785 57.4755 114.429 57.2827 115.104 57.2827C116.745 57.2827 117.143 58.4242 117.143 59.5181V61.5607C117.143 62.0339 117.165 62.497 117.232 62.8699H116.345V62.8724ZM116.2 60.0838C115.136 60.0613 113.927 60.2541 113.927 61.3154C113.927 61.9588 114.348 62.2642 114.846 62.2642C115.544 62.2642 115.989 61.8136 116.143 61.3505C116.175 61.2478 116.2 61.1352 116.2 61.0351V60.0838Z" fill="white"/>
<path d="M118.715 54.8569H119.69V62.8723H118.715V54.8569Z" fill="white"/>
<path d="M121.43 62.8725V58.1639H120.676V57.4079H121.43V57.1476C121.43 56.3791 121.597 55.6807 122.052 55.2401C122.418 54.8796 122.904 54.7319 123.359 54.7319C123.702 54.7319 124.002 54.812 124.189 54.8896L124.056 55.6581C123.911 55.5905 123.712 55.533 123.435 55.533C122.604 55.533 122.393 56.2789 122.393 57.1125V57.4054H123.69V58.1614H122.393V62.87H121.43V62.8725Z" fill="white"/>
<path d="M131.768 60.0963C131.768 62.1164 130.394 62.9975 129.097 62.9975C127.645 62.9975 126.527 61.9136 126.527 60.1864C126.527 58.3565 127.702 57.2852 129.188 57.2852C130.726 57.2852 131.768 58.4241 131.768 60.0963ZM127.512 60.1514C127.512 61.3479 128.188 62.2516 129.141 62.2516C130.072 62.2516 130.77 61.3604 130.77 60.1288C130.77 59.2026 130.316 58.0286 129.163 58.0286C128.011 58.0286 127.512 59.1125 127.512 60.1514Z" fill="white"/>
<path d="M137.487 61.3828C137.487 61.9485 137.497 62.4442 137.531 62.8722H136.666L136.61 61.9811H136.588C136.332 62.4216 135.767 62.9974 134.814 62.9974C133.971 62.9974 132.964 62.5243 132.964 60.6043V57.4102H133.939V60.4366C133.939 61.4754 134.249 62.1763 135.136 62.1763C135.789 62.1763 136.244 61.7132 136.42 61.2727C136.477 61.125 136.509 60.9447 136.509 60.7645V57.4102H137.484V61.3828H137.487Z" fill="white"/>
<path d="M139.106 59.1125C139.106 58.4692 139.093 57.916 139.062 57.4078H139.914L139.948 58.4817H139.993C140.236 57.7483 140.823 57.2852 141.477 57.2852C141.587 57.2852 141.666 57.2952 141.754 57.3202V58.2564C141.653 58.2339 141.555 58.2239 141.422 58.2239C140.735 58.2239 140.248 58.7546 140.115 59.5005C140.093 59.6357 140.071 59.7934 140.071 59.9636V62.8774H139.108V59.1125H139.106Z" fill="white"/>
<path d="M149.71 54.8569V61.463C149.71 61.9486 149.719 62.5018 149.754 62.8748H148.879L148.835 61.9261H148.813C148.513 62.5369 147.86 63 146.985 63C145.688 63 144.69 61.8835 144.69 60.2214C144.681 58.404 145.789 57.2851 147.096 57.2851C147.916 57.2851 148.469 57.6806 148.712 58.1212H148.734V54.8569H149.71ZM148.734 59.6331C148.734 59.5079 148.722 59.3402 148.69 59.2151C148.545 58.5818 148.014 58.0636 147.282 58.0636C146.275 58.0636 145.676 58.9673 145.676 60.1738C145.676 61.2802 146.209 62.1939 147.26 62.1939C147.914 62.1939 148.513 61.7534 148.69 61.0074C148.722 60.8722 148.734 60.737 148.734 60.5793V59.6331Z" fill="white"/>
<path d="M151.872 60.3216C151.894 61.6659 152.736 62.2191 153.712 62.2191C154.409 62.2191 154.832 62.0939 155.195 61.9362L155.363 62.6472C155.019 62.8049 154.431 62.9851 153.579 62.9851C151.928 62.9851 150.94 61.8787 150.94 60.229C150.94 58.5819 151.894 57.2827 153.456 57.2827C155.208 57.2827 155.672 58.8522 155.672 59.856C155.672 60.0588 155.65 60.2165 155.64 60.3191H151.872V60.3216ZM154.731 59.6107C154.741 58.9774 154.476 57.9961 153.38 57.9961C152.395 57.9961 151.962 58.9223 151.884 59.6107H154.731Z" fill="white"/>
<path d="M157.423 60.3216C157.445 61.6659 158.288 62.2191 159.263 62.2191C159.961 62.2191 160.384 62.0939 160.747 61.9362L160.914 62.6472C160.57 62.8049 159.983 62.9851 159.131 62.9851C157.48 62.9851 156.492 61.8787 156.492 60.229C156.492 58.5819 157.445 57.2827 159.008 57.2827C160.76 57.2827 161.224 58.8522 161.224 59.856C161.224 60.0588 161.202 60.2165 161.192 60.3191H157.423V60.3216ZM160.283 59.6107C160.293 58.9774 160.027 57.9961 158.932 57.9961C157.947 57.9961 157.514 58.9223 157.436 59.6107H160.283Z" fill="white"/>
<path d="M162.433 58.8872C162.433 58.3215 162.421 57.8609 162.389 57.4078H163.253L163.31 58.3115H163.332C163.597 57.7933 164.219 57.2852 165.106 57.2852C165.848 57.2852 167 57.7357 167 59.6107V62.8749H166.025V59.7258C166.025 58.8447 165.703 58.1112 164.784 58.1112C164.14 58.1112 163.642 58.5743 163.477 59.1275C163.433 59.2527 163.411 59.4204 163.411 59.5906V62.8774H162.435V58.8872H162.433Z" fill="white"/>
<path d="M30.6882 30.2491C30.7152 31.0702 30.1231 31.7286 29.1847 31.7286C28.3518 31.7286 27.7598 31.0702 27.7598 30.2491C27.7598 29.4005 28.3789 28.7422 29.2363 28.7422C30.1231 28.7447 30.6882 29.4005 30.6882 30.2491ZM28.0546 47.2236V33.974H30.418V47.2236H28.0546Z" fill="white"/>
<path d="M45.5713 27.7861V43.8018C45.5713 44.9784 45.5983 46.3201 45.6794 47.2238H43.5567L43.4487 44.9233H43.3946C42.6699 46.4027 41.0853 47.5242 38.9626 47.5242C35.8205 47.5242 33.4006 44.8132 33.4006 40.7905C33.3736 36.3823 36.0612 33.6737 39.2304 33.6737C41.2179 33.6737 42.5618 34.6325 43.1538 35.6989H43.2079V27.7861H45.5713ZM43.2079 39.3661C43.2079 39.0657 43.1809 38.6552 43.0998 38.3523C42.7509 36.8203 41.4611 35.5587 39.6874 35.5587C37.2429 35.5587 35.791 37.749 35.791 40.6778C35.791 43.3613 37.0808 45.5791 39.6333 45.5791C41.2179 45.5791 42.6699 44.5128 43.0998 42.7054C43.1809 42.3775 43.2079 42.0471 43.2079 41.6641V39.3661Z" fill="white"/>
<path d="M50.809 41.0359C50.8631 44.2926 52.9046 45.6343 55.268 45.6343C56.9607 45.6343 57.9827 45.3339 58.8671 44.9509L59.27 46.6756C58.4372 47.0586 57.0123 47.4967 54.9437 47.4967C50.9417 47.4967 48.5488 44.8132 48.5488 40.8181C48.5488 36.8204 50.8582 33.6738 54.6465 33.6738C58.8917 33.6738 60.0193 37.4787 60.0193 39.9144C60.0193 40.4075 59.9653 40.7905 59.9383 41.0359H50.809ZM57.7419 39.3111C57.769 37.7791 57.1228 35.3961 54.4647 35.3961C52.0742 35.3961 51.0252 37.6415 50.8385 39.3111H57.7419Z" fill="white"/>
<path d="M70.1529 47.2238L69.9637 45.5541H69.8827C69.1579 46.5955 67.76 47.5242 65.9052 47.5242C63.2716 47.5242 61.9277 45.6342 61.9277 43.7193C61.9277 40.5176 64.721 38.7654 69.7451 38.7929V38.52C69.7451 37.4261 69.4503 35.4536 66.7896 35.4536C65.5809 35.4536 64.3181 35.8366 63.4042 36.4398L62.8662 34.8528C63.9398 34.1419 65.4998 33.6763 67.1385 33.6763C71.1159 33.6763 72.0814 36.4398 72.0814 39.0958V44.0497C72.0814 45.1987 72.1355 46.3226 72.2976 47.2263H70.1529V47.2238ZM69.804 40.46C67.2245 40.405 64.296 40.8706 64.296 43.4439C64.296 45.0034 65.318 45.7444 66.5267 45.7444C68.2194 45.7444 69.293 44.648 69.6689 43.5265C69.75 43.2812 69.804 43.0058 69.804 42.7605V40.46Z" fill="white"/>
<path d="M75.9023 27.7861H78.2657V47.2238H75.9023V27.7861Z" fill="white"/>
<path d="M82.3242 47.2238V28.7725H84.8768L90.6796 38.107C92.0234 40.2698 93.07 42.2123 93.9298 44.1023L93.9839 44.0748C93.7677 41.6116 93.7161 39.3662 93.7161 36.4924V28.7725H95.9198V47.2238H93.5564L87.8077 37.8617C86.5449 35.8091 85.3362 33.7013 84.4223 31.7012L84.3412 31.7288C84.4763 34.0568 84.5304 36.2722 84.5304 39.3386V47.2238H82.3242Z" fill="white"/>
<path d="M102.82 30.2491C102.847 31.0702 102.255 31.7286 101.317 31.7286C100.484 31.7286 99.8916 31.0702 99.8916 30.2491C99.8916 29.4005 100.511 28.7422 101.368 28.7422C102.255 28.7447 102.82 29.4005 102.82 30.2491ZM100.186 47.2236V33.974H102.55V47.2236H100.186Z" fill="white"/>
<path d="M108.813 40.0495H108.867C109.189 39.5839 109.646 39.0081 110.022 38.545L113.837 33.9741H116.684L111.66 39.4212L117.382 47.2238H114.508L110.022 40.8731L108.813 42.2423V47.2238H106.477V27.7861H108.813V40.0495Z" fill="white"/>
<path d="M126.756 47.2238L126.567 45.5541H126.486C125.761 46.5955 124.364 47.5242 122.509 47.5242C119.875 47.5242 118.531 45.6342 118.531 43.7193C118.531 40.5176 121.325 38.7654 126.349 38.7929V38.52C126.349 37.4261 126.054 35.4536 123.393 35.4536C122.184 35.4536 120.922 35.8366 120.008 36.4398L119.47 34.8528C120.543 34.1419 122.103 33.6763 123.742 33.6763C127.719 33.6763 128.685 36.4398 128.685 39.0958V44.0497C128.685 45.1987 128.739 46.3226 128.899 47.2263H126.756V47.2238ZM126.408 40.46C123.828 40.405 120.9 40.8706 120.9 43.4439C120.9 45.0034 121.922 45.7444 123.13 45.7444C124.823 45.7444 125.897 44.648 126.272 43.5265C126.353 43.2812 126.408 43.0058 126.408 42.7605V40.46Z" fill="white"/>
<path d="M132.505 27.7861H134.869V36.0543H134.923C135.299 35.3709 135.891 34.7677 136.616 34.3571C137.313 33.9466 138.146 33.6737 139.033 33.6737C140.78 33.6737 143.573 34.7677 143.573 39.3411V47.2263H141.21V39.6164C141.21 37.4812 140.431 35.6738 138.2 35.6738C136.67 35.6738 135.458 36.7703 135.028 38.082C134.893 38.4099 134.866 38.7653 134.866 39.2309V47.2238H132.503V27.7861H132.505Z" fill="white"/>
</svg>
